# xmcd
#
# Track frame offsets:
# 150
# 21745
# 35769
# 63509
# 102655
# 124561
# 154679
# 177962
# 200276
# 228210
# 255796
# 286597
#
# Disc length: 4168 seconds
#
#
# Revision: 0
# Processed by: cddbd v1.5PL3 Copyright (c) Steve Scherf et al.
# Submitted via: FreeRIP 2.53 
#
DISCID=9d10460c
DTITLE=Bob Dylan - The never ending tour #1
DYEAR=1993
DGENRE=Blues
TTITLE0=Keep on movin' on
TTITLE1=The man in me
TTITLE2=All along the watchtower
TTITLE3=Tangled up in blue
TTITLE4=Watching the river flow
TTITLE5=Stuck inside of moblie with the memphis blues again
TTITLE6=Silvio
TTITLE7=Tomorrow night
TTITLE8=Jim Jones
TTITLE9=Gates of eden
TTITLE10=It's all over now baby blue
TTITLE11=Cats in the well
EXTD=live
EXTT0=
EXTT1=
EXTT2=
EXTT3=
EXTT4=
EXTT5=
EXTT6=
EXTT7=
EXTT8=
EXTT9=
EXTT10=
EXTT11=
PLAYORDER=
